# xmcd
#
# Track frame offsets: 
#        150
#        19295
#        36808
#        53090
#        65037
#        78073
#        95722
#        114509
#        132626
#        146916
#        162391
#        183916
#        200892
#        219658
#        239326
#        256466
#        271091
#        284832
#
# Disc length: 3957 seconds
#
# Revision: 0
# Processed by: cddbd v1.5.1PL0 Copyright (c) Steve Scherf et al.
# Submitted via: ExactAudioCopy v0.95a5
#
DISCID=1f0f7312
DTITLE=Various Artist - Texas Music Magazine TexMix Spring 2005
DYEAR=2005
DGENRE=Country
TTITLE0=Waitin' On Five O'Clock - Jay Boy Adams (w Jack Ingram)
TTITLE1=Busted in Baylor County - Shooter Jennings
TTITLE2=So Close Now - Eli Young Band
TTITLE3=Trouble - Buffalo Speedway
TTITLE4=She Turned Me On - 5 Mile
TTITLE5=Right Finger, Wrong Hand - Shelley Laine
TTITLE6=A Little of This - Ezra Charles and the Works
TTITLE7=One More Dance - Paul Eason
TTITLE8=Falling Waltz - Rufus McGovern
TTITLE9=Radio - Sheila Marshall
TTITLE10=Lonely Like Me - Sara Hamilton
TTITLE11=What I Really Mean - Robert Earl Keen
TTITLE12=My Bud - Redneck Jedi
TTITLE13=Not Tonight - Houston Marchman
TTITLE14=Drive Away - Rodney Parker
TTITLE15=Green-Eyed Girl - Libra's Rib
TTITLE16=Bottom Dollar - Robert Earl Keen
TTITLE17=Hearts-a-Bustin' - Jimmie Dale Gilmore (w Colin Gilmore)
EXTD=
EXTT0=
EXTT1=
EXTT2=
EXTT3=
EXTT4=
EXTT5=
EXTT6=
EXTT7=
EXTT8=
EXTT9=
EXTT10=
EXTT11=
EXTT12=
EXTT13=
EXTT14=
EXTT15=
EXTT16=
EXTT17=
PLAYORDER=
